<svg width="173" height="176" viewBox="0 0 173 176" fill="none" xmlns="http://www.w3.org/2000/svg">
<path d="M150.097 100.826L162.078 87.5169L171.513 86.7753L172.946 96.9826L165.315 100.395L156.982 109.169L151.926 110.322L150.097 100.826Z" fill="#EFBE9D"/>
<path d="M115.598 100.442L122.387 122.2L145.002 102.156L153.52 109.427C153.52 109.427 134.328 139.933 125.018 145.676C114.691 152.05 102.404 143.672 100.85 137.523C99.2969 131.375 91.119 103.809 91.119 103.809L115.598 100.442Z" fill="#EFBE9D"/>
<path d="M122.909 121.821C122.934 121.866 122.312 122.212 121.44 122.933C120.931 123.361 120.455 123.827 120.017 124.327C118.946 125.55 118.12 126.969 117.587 128.506C117.371 129.133 117.203 129.776 117.086 130.43C116.885 131.547 116.89 132.259 116.84 132.259C116.808 132.094 116.796 131.926 116.805 131.758C116.791 131.563 116.791 131.367 116.805 131.171C116.805 130.946 116.83 130.67 116.88 130.4C116.977 129.731 117.131 129.072 117.341 128.43C117.863 126.852 118.708 125.4 119.822 124.166C120.282 123.665 120.785 123.206 121.325 122.793C121.546 122.608 121.771 122.472 121.956 122.342C122.118 122.231 122.285 122.129 122.458 122.037C122.597 121.944 122.749 121.872 122.909 121.821Z" fill="#E7996E"/>
<path d="M98.5768 122.012L122.364 115.593C122.364 115.593 117.263 100.505 113.294 89.6016C109.786 79.9856 103.908 75.9819 100.852 73.8071C99.6174 72.9213 98.1838 72.3534 96.6777 72.1535C91.0504 71.4019 75.6568 69.3774 68.0201 68.7411C58.5744 67.9543 38.8463 73.1557 38.8463 73.1557C38.8463 73.1557 21.5486 82.7466 15.7158 86.6502C14.2855 87.5961 13.1924 88.9717 12.594 90.5788C11.5166 93.4801 10.1436 98.466 8.50006 104.915C7.45277 109.014 3.9902 122.584 3.9902 122.584L24.2795 121.957C28.3685 134.374 32.1567 145.509 32.1567 145.509L30.5131 175.254H105.757C105.757 175.254 98.8123 129.243 98.8123 128.176C98.8123 127.785 98.7171 125.154 98.5768 122.012Z" fill="#90CAF9"/>
<g opacity="0.3">
<path d="M75.1894 97.8761C73.6861 95.977 71.1005 95.2003 68.7052 95.4408C66.31 95.6813 64.0851 96.8138 62.0908 98.1668C55.9373 102.341 51.5678 108.635 47.7094 114.983C40.9745 126.052 35.3163 137.741 30.8125 149.89L30.9678 152.997C36.0138 152.36 39.301 148.106 41.4908 143.521C43.6806 138.936 44.6226 133.845 46.5518 129.144C50.3137 120.115 57.491 112.938 66.5204 109.176C69.527 109.486 72.7541 108.519 74.7184 106.224C76.6826 103.929 77.0585 100.246 75.1894 97.8761Z" fill="black"/>
</g>
<path d="M98.827 125.949C98.7117 125.949 98.0403 119.369 97.3237 111.236C96.6071 103.104 96.1161 96.4943 96.2263 96.4843C96.3365 96.4742 97.013 103.059 97.7296 111.201C98.4462 119.344 98.9322 125.939 98.827 125.949Z" fill="#263238"/>
<path d="M18.8955 96.4843C19.0312 96.8066 19.132 97.1426 19.1961 97.4864C19.3715 98.2281 19.597 99.1751 19.8626 100.308C20.4088 102.693 21.1354 105.99 21.9121 109.643C22.6888 113.296 23.3753 116.603 23.8513 119.003C24.0668 120.146 24.2472 121.103 24.3925 121.85C24.4751 122.196 24.5221 122.551 24.5328 122.907C24.4033 122.583 24.3043 122.247 24.2371 121.905C24.0618 121.163 23.8363 120.216 23.5707 119.084C23.0245 116.698 22.2979 113.401 21.5162 109.748C20.7345 106.095 20.058 102.788 19.582 100.388C19.3665 99.2453 19.1811 98.2882 19.0408 97.5366C18.9586 97.1913 18.9099 96.8389 18.8955 96.4843Z" fill="#263238"/>
<path d="M95.1833 72.4393C95.3035 72.4694 94.617 75.1102 94.146 78.4525C93.675 81.7948 93.5748 84.4957 93.4545 84.4656C93.3492 83.8754 93.3222 83.2739 93.3743 82.6767C93.4142 81.2342 93.538 79.7953 93.7451 78.3673C93.9476 76.9366 94.2354 75.5193 94.607 74.123C94.7264 73.5395 94.9201 72.9736 95.1833 72.4393Z" fill="#263238"/>
<path d="M62.7376 86.259L69.5826 72.4539L67.4579 66.4407C67.4579 66.4407 77.7254 61.1091 74.2177 50.2303C72.524 44.9788 68.1544 34.4458 64.0906 24.9601C61.9822 20.0399 58.0986 16.0939 53.2128 13.9072C48.3269 11.7206 42.7968 11.4536 37.723 13.1593L36.6807 13.5051C25.6316 17.9548 23.2363 29.8207 27.9867 40.7446L41.8821 81.3333L62.7376 86.259Z" fill="#EFBE9D"/>
<path d="M67.4894 66.4081C67.4894 66.4081 60.8298 69.2693 52.0156 67.1447C52.0156 67.1447 57.9786 73.8193 68.4565 69.2092L67.4894 66.4081Z" fill="#E7996E"/>
<path d="M64.687 35.655C64.8253 36.0573 64.8018 36.4977 64.6213 36.883C64.4408 37.2683 64.1175 37.5683 63.7198 37.7195C63.5283 37.8012 63.3224 37.8437 63.1142 37.8447C62.906 37.8457 62.6997 37.8051 62.5074 37.7253C62.315 37.6455 62.1406 37.5281 61.9943 37.3799C61.848 37.2318 61.7328 37.0559 61.6553 36.8626C61.5154 36.461 61.5376 36.0206 61.7173 35.635C61.8969 35.2495 62.2199 34.9493 62.6174 34.7981C62.8092 34.7157 63.0156 34.6725 63.2244 34.6711C63.4331 34.6697 63.6401 34.7101 63.833 34.7899C64.0259 34.8698 64.2008 34.9875 64.3475 35.1361C64.4942 35.2846 64.6096 35.4611 64.687 35.655Z" fill="#263238"/>
<path d="M63.5072 30.3872C63.387 30.6528 61.9188 30.1768 60.2551 30.743C58.5915 31.3092 57.6545 32.5469 57.4039 32.4066C57.2836 32.3465 57.3588 31.9055 57.7597 31.3493C58.3133 30.6084 59.0812 30.0556 59.9595 29.7659C60.8243 29.4743 61.7592 29.4637 62.6303 29.7358C63.2767 29.9563 63.5724 30.2619 63.5072 30.3872Z" fill="#263238"/>
<path d="M50.2281 39.998C50.3676 40.3996 50.3445 40.8398 50.1638 41.2247C49.9831 41.6095 49.6591 41.9084 49.261 42.0575C49.0695 42.1399 48.8635 42.183 48.6551 42.1844C48.4467 42.1857 48.2401 42.1452 48.0476 42.0653C47.8551 41.9854 47.6806 41.8678 47.5344 41.7192C47.3882 41.5707 47.2733 41.3944 47.1964 41.2006C47.0581 40.7983 47.0816 40.3579 47.2621 39.9726C47.4426 39.5873 47.7659 39.2873 48.1636 39.1361C48.3554 39.0546 48.5616 39.0123 48.7701 39.0116C48.9785 39.0109 49.185 39.052 49.3773 39.1323C49.5697 39.2126 49.744 39.3305 49.8901 39.4792C50.0362 39.6279 50.1511 39.8043 50.2281 39.998Z" fill="#263238"/>
<path d="M47.3392 35.3163C47.244 35.5919 45.7357 35.2812 44.1423 36.0228C42.5488 36.7644 41.752 38.1023 41.4915 37.9871C41.3662 37.937 41.3862 37.486 41.727 36.8997C42.1939 36.1043 42.8935 35.4712 43.7314 35.0858C44.5609 34.7022 45.4902 34.59 46.3872 34.7651C47.0586 34.9154 47.3893 35.186 47.3392 35.3163Z" fill="#263238"/>
<path d="M57.4816 47.1201C57.4466 47.0249 58.4187 46.4987 60.0222 45.722C60.4331 45.5316 60.8089 45.3162 60.7838 45.0005C60.6708 44.548 60.4226 44.1408 60.0723 43.8329L57.7472 41.0418C54.455 37.0331 51.9145 33.6557 52.0798 33.5254C52.2452 33.3951 55.0463 36.532 58.3385 40.5708C59.1453 41.573 59.9119 42.515 60.6385 43.422C60.9642 43.853 61.4253 44.309 61.4202 45.0155C61.408 45.1872 61.3564 45.3538 61.2696 45.5023C61.1827 45.6509 61.0628 45.7775 60.9191 45.8724C60.7036 46.0154 60.4714 46.1315 60.2276 46.2181C58.564 46.8495 57.5217 47.2103 57.4816 47.1201Z" fill="#263238"/>
<path d="M45.0688 29.5596C45.0688 30.0607 43.32 30.4115 41.4459 31.3034C39.5718 32.1954 38.1687 33.2577 37.7779 32.937C37.5925 32.7817 37.7277 32.2655 38.2138 31.6141C38.8836 30.7908 39.7321 30.131 40.695 29.6847C41.6579 29.2384 42.7099 29.0174 43.7709 29.0385C44.5827 29.0585 45.0638 29.299 45.0688 29.5596Z" fill="#263238"/>
<path d="M61.539 25.8962C61.3737 26.3973 60.0959 26.3673 58.7128 26.8132C57.3298 27.2592 56.2475 27.9207 55.8466 27.615C55.6662 27.4647 55.7213 27.0237 56.1122 26.4925C56.6539 25.8344 57.3787 25.3517 58.1949 25.1055C59.011 24.8593 59.8818 24.8607 60.6972 25.1095C61.3185 25.33 61.6092 25.6657 61.539 25.8962Z" fill="#263238"/>
<path d="M31.5876 48.4462C31.3772 48.4462 23.4048 48.7468 26.1307 56.0728C28.8567 63.3988 35.6515 59.1495 35.5864 58.9341C35.5212 58.7186 31.5876 48.4462 31.5876 48.4462Z" fill="#EFBE9D"/>
<path d="M32.2767 57.0116C32.2366 57.0116 32.1815 57.1468 32.0061 57.3272C31.7515 57.5707 31.4112 57.7039 31.059 57.6981C30.1771 57.6981 29.0546 56.6959 28.5535 55.4131C28.2986 54.7911 28.1873 54.1197 28.2278 53.4488C28.213 53.1943 28.2594 52.94 28.3631 52.7072C28.4669 52.4744 28.625 52.2699 28.8241 52.1108C28.9565 52.0186 29.1168 51.9751 29.2777 51.9879C29.4385 52.0007 29.5899 52.069 29.706 52.181C29.8814 52.3514 29.8915 52.5167 29.9366 52.5117C29.9817 52.5067 30.0468 52.3313 29.8764 52.0507C29.7678 51.8841 29.6049 51.7602 29.4154 51.6999C29.2875 51.6599 29.1529 51.6459 29.0194 51.6588C28.886 51.6717 28.7566 51.7113 28.6387 51.7751C28.3596 51.9466 28.1292 52.1869 27.9695 52.4729C27.8099 52.7589 27.7263 53.0811 27.7267 53.4087C27.6542 54.1587 27.7642 54.9152 28.0474 55.6135C28.6437 57.0717 29.9115 58.1741 31.0841 58.0839C31.3024 58.0692 31.5146 58.0052 31.7047 57.8967C31.8947 57.7882 32.0578 57.6381 32.1815 57.4575C32.3318 57.1919 32.3067 57.0116 32.2767 57.0116Z" fill="#E7996E"/>
<path d="M52.9556 49.9525C53.2211 49.8473 53.8325 51.6512 55.8118 52.4129C57.7911 53.1746 59.6452 52.3327 59.7454 52.5783C59.8055 52.6835 59.4347 53.0794 58.6279 53.37C57.5735 53.7409 56.4221 53.7285 55.3758 53.3349C54.3733 52.9549 53.5576 52.2003 53.1009 51.2303C52.7752 50.4987 52.8303 49.9826 52.9556 49.9525Z" fill="#263238"/>
<path d="M66.7519 8.90783C66.4178 8.23809 65.9222 7.66205 65.3098 7.23165C64.6974 6.80126 63.9876 6.53004 63.2443 6.44245C63.1008 6.03155 62.9179 5.63551 62.6981 5.25986C61.3551 2.9849 58.3285 1.7522 55.8732 2.75439C55.3503 1.8737 54.5969 1.15242 53.6943 0.668297C52.7917 0.184177 51.7741 -0.0444231 50.7512 0.00713578C49.7283 0.0586947 48.7388 0.388459 47.8895 0.960883C47.0401 1.53331 46.3631 2.32668 45.9314 3.25549C44.7332 2.77373 43.4214 2.64749 42.1533 2.89188C40.8851 3.13627 39.7143 3.74093 38.7808 4.6335C38.5411 4.84776 38.3673 5.12584 38.2797 5.43524C38.2589 5.53925 38.2589 5.64634 38.2795 5.75038C38.3001 5.85442 38.3411 5.95337 38.4 6.04157C37.8732 5.60841 37.2494 5.30924 36.5818 5.16962C35.9143 5.03 35.2228 5.05408 34.5666 5.23982C34.1219 5.37399 33.7045 5.58607 33.3339 5.86618C32.1947 6.36239 31.2953 7.28522 30.8285 8.4368C29.1688 8.45968 27.5752 9.09056 26.3497 10.2099C25.1241 11.3293 24.3518 12.8593 24.1789 14.5101C22.9946 15.0042 21.9844 15.8402 21.2775 16.9113C20.5706 17.9824 20.199 19.2399 20.2103 20.5232C19.4505 20.8497 18.7901 21.3705 18.2955 22.0331C17.8008 22.6958 17.4894 23.477 17.3924 24.2982C17.2953 25.1194 17.4162 25.9517 17.7429 26.7114C18.0695 27.4711 18.5904 28.1314 19.2532 28.6259C19.2532 28.6259 14.4627 31.5473 17.3641 35.7264C18.8673 37.8611 21.8739 36.3828 21.8739 36.3828L30.8936 50.0076C30.8535 50.1028 32.442 51.5109 33.2087 50.8394C33.9753 50.1679 34.1758 49.0705 34.4113 48.0784C34.6869 46.9409 35.0777 45.7984 34.9825 44.6308C34.8873 43.4633 34.1457 42.2406 32.9782 42.0602C34.1156 41.2084 34.4814 39.6249 34.296 38.2168C34.1106 36.8088 33.3991 35.531 32.7176 34.2833L29.711 28.7712C31.041 28.2681 32.2084 27.4113 33.087 26.2933C33.9657 25.1753 34.5224 23.8386 34.6969 22.4274C37.1122 23.2592 40.0636 21.3951 40.3392 18.8495C41.2585 20.0021 42.581 20.7627 44.0396 20.9776C45.4981 21.1925 46.9838 20.8456 48.1964 20.0071C48.4169 21.6406 51.6489 22.1417 53.2925 22.0365C54.9361 21.9313 56.4695 20.2376 56.4695 20.2376C57.5749 20.4661 58.7128 20.4898 59.8268 20.3077L59.9922 20.2626C62.1519 19.7615 63.5599 17.1809 63.9558 15.0011C64.5125 14.8734 65.0364 14.6311 65.4942 14.2896C66.2711 13.6591 66.8163 12.7882 67.044 11.8139C67.2717 10.8397 67.169 9.81731 66.7519 8.90783Z" fill="#263238"/>
<path d="M55.0138 4.93652C55.1224 5.00351 55.2218 5.08437 55.3095 5.17705C55.5711 5.43282 55.7924 5.7268 55.9659 6.04895C56.2472 6.55748 56.4275 7.11557 56.497 7.69254C56.5914 8.46159 56.4915 9.24203 56.2064 9.9625C55.8387 10.833 55.1723 11.5438 54.3273 11.9669C53.3526 12.4549 52.2398 12.5929 51.1754 12.3577C50.6 12.232 50.0583 11.9843 49.587 11.6311C49.3354 11.4531 49.1167 11.2327 48.9405 10.9797C48.748 10.716 48.6334 10.4035 48.6098 10.0778C48.6044 9.90661 48.6355 9.73626 48.7012 9.57812C48.7669 9.41997 48.8655 9.27768 48.9907 9.16075C49.2438 8.93744 49.5546 8.78984 49.8876 8.73482C50.2197 8.66985 50.5622 8.68012 50.8898 8.76489C51.2174 8.83574 51.5297 8.96473 51.8118 9.14572C52.3605 9.49685 52.8045 9.98923 53.0972 10.5712C53.39 11.1531 53.5206 11.8031 53.4754 12.4529C53.4126 13.0496 53.2313 13.6277 52.9422 14.1535C52.6531 14.6792 52.262 15.1419 51.7918 15.5146C50.948 16.193 49.9304 16.6202 48.8554 16.7473C47.9313 16.8589 46.9952 16.8183 46.0843 16.6271C44.7801 16.3319 43.5177 15.8758 42.3261 15.2691C41.9002 15.0636 41.5795 14.8933 41.359 14.768C41.2451 14.7129 41.1347 14.651 41.0283 14.5826C41.1498 14.6168 41.2674 14.6638 41.379 14.7229L42.3812 15.1689C43.5784 15.7324 44.8359 16.1578 46.1294 16.4366C47.0209 16.6101 47.9346 16.6389 48.8353 16.5218C49.867 16.3941 50.8416 15.9772 51.6465 15.3192C52.0887 14.9646 52.4566 14.5263 52.7292 14.0293C53.0018 13.5323 53.1736 12.9864 53.2349 12.4229C53.2737 11.8195 53.1501 11.2168 52.8769 10.6775C52.6037 10.1381 52.1909 9.68186 51.6815 9.35618C51.4265 9.18995 51.1427 9.07269 50.8447 9.01042C50.5548 8.93558 50.252 8.92532 49.9578 8.98036C49.6747 9.02554 49.4104 9.15072 49.1961 9.34115C49.0956 9.43181 49.0161 9.54339 48.9633 9.66805C48.9105 9.79271 48.8856 9.92743 48.8904 10.0627C48.9301 10.3383 49.0284 10.6022 49.1788 10.8364C49.3293 11.0707 49.5282 11.27 49.7623 11.4207C50.2076 11.7571 50.7205 11.993 51.2656 12.1122C52.2783 12.3451 53.3403 12.2212 54.2722 11.7614C55.0813 11.3621 55.7211 10.6868 56.0761 9.85728C56.3246 9.24997 56.4388 8.59616 56.4112 7.9406C56.3835 7.28503 56.2145 6.64318 55.9158 6.05898C55.6752 5.64026 55.3709 5.26157 55.0138 4.93652Z" fill="#455A64"/>
<path d="M6.46993 122.495C6.46993 122.495 1.71956 139.693 0.672269 143.892C-0.375019 148.091 -0.385041 157.848 1.99516 160.734C4.37536 163.62 12.2325 165.459 12.2325 165.459C12.2325 165.459 27.6512 157.943 32.9027 148.743C38.1541 139.543 52.5055 114.568 52.5055 114.568L47.9606 102.091L24.0533 124.916L24.3039 121.944L6.46993 122.495Z" fill="#EFBE9D"/>
<path d="M56.4179 62.7404C56.6147 62.6396 56.8296 62.5789 57.0501 62.5616C57.2706 62.5444 57.4924 62.571 57.7025 62.64C57.9127 62.7089 58.107 62.8188 58.2745 62.9634C58.4419 63.1079 58.579 63.2842 58.6778 63.4821L72.4379 90.8819L68.9302 92.4503L55.6662 64.9653C55.4757 64.5698 55.4477 64.1154 55.5882 63.6996C55.7287 63.2837 56.0266 62.9394 56.4179 62.7404Z" fill="#455A64"/>
<path d="M47.2382 102.863L60.1013 89.5995H72.4282L80.3105 100.022C80.3105 100.022 76.5673 100.719 75.2294 98.7094L73.4855 96.229C73.4855 96.229 75.2294 100.047 74.2923 101.926C74.2923 101.926 72.4433 106.281 72.1476 106.747C71.5864 107.624 71.1454 108.185 69.552 107.92C67.9585 107.654 65.448 106.346 65.7136 105.414C65.7972 105.142 65.9541 104.898 66.1671 104.709C66.3801 104.519 66.6409 104.393 66.9212 104.342L63.168 103.806C63.168 103.806 59.3898 110.65 57.1148 112.259C55.7071 113.243 54.1644 114.017 52.5348 114.559L47.2382 102.863Z" fill="#EFBE9D"/>
<path d="M24.5565 124.526C24.5866 124.591 23.5193 125.087 21.8807 126.029C19.7547 127.276 17.7559 128.728 15.9126 130.364C14.0701 132.011 12.3919 133.834 10.9017 135.806C9.76421 137.309 9.15287 138.311 9.09274 138.311C9.18388 138.05 9.30673 137.801 9.45854 137.57C9.82858 136.912 10.2334 136.275 10.6712 135.66C13.5296 131.561 17.3042 128.185 21.6953 125.799C22.5371 125.353 23.2386 125.017 23.7297 124.797C23.9924 124.671 24.2703 124.58 24.5565 124.526Z" fill="#E7996E"/>
<path d="M62.8798 93.4532C63.4694 93.2837 64.0762 93.1811 64.6888 93.1475C65.8062 93.0072 67.3596 92.8469 69.0733 92.6966C69.506 92.644 69.9435 92.644 70.3762 92.6966C70.7909 92.7618 71.1852 92.9212 71.5287 93.1626C72.0905 93.5682 72.5404 94.1095 72.8366 94.736C73.1317 95.2816 73.3268 95.8756 73.4128 96.4899C73.3477 96.5149 73.1122 95.8434 72.581 94.8713C72.2762 94.3138 71.8455 93.8351 71.3232 93.4733C71.0214 93.2739 70.6791 93.1438 70.3211 93.0924C69.9198 93.0476 69.5147 93.0476 69.1134 93.0924C67.3997 93.2427 65.8463 93.358 64.7188 93.4231C64.1089 93.5019 63.492 93.512 62.8798 93.4532Z" fill="#E7996E"/>
<path d="M72.6945 106.089C72.6243 106.089 72.7446 105.152 72.6644 103.658C72.6154 102.787 72.4964 101.92 72.3086 101.068C72.0982 100.131 71.8075 99.0082 70.8555 98.462C70.383 98.2113 69.8766 98.0307 69.3522 97.9258L67.8489 97.5801C66.9927 97.3843 66.1236 97.2504 65.2482 97.1792C64.4426 97.1539 63.6363 97.174 62.8329 97.2393C63.0287 97.133 63.243 97.065 63.4643 97.0389C64.0566 96.9232 64.66 96.8744 65.2632 96.8936C66.1541 96.9248 67.0408 97.0304 67.914 97.2093C68.4151 97.3045 68.9162 97.4147 69.4474 97.535C70.0189 97.6398 70.5702 97.8343 71.0809 98.1112C71.5959 98.4253 71.9991 98.8934 72.2335 99.4492C72.4431 99.9431 72.5961 100.459 72.6895 100.988C72.8639 101.862 72.9562 102.751 72.9651 103.643C72.9721 104.243 72.9353 104.843 72.8548 105.437C72.839 105.662 72.7848 105.882 72.6945 106.089Z" fill="#E7996E"/>
<path d="M68.2528 101.626C68.358 101.626 68.4382 102.698 68.4482 104.096V104.337L68.1977 104.292C68.0623 104.265 67.9247 104.252 67.7868 104.252C67.1434 104.274 66.5333 104.543 66.0831 105.003C65.7373 105.364 65.6271 105.68 65.582 105.66C65.5369 105.64 65.5519 105.284 65.8826 104.818C66.1088 104.521 66.3995 104.279 66.7328 104.11C67.0662 103.942 67.4334 103.851 67.8068 103.846C67.9753 103.846 68.1433 103.865 68.3079 103.901L68.0624 104.096C68.0423 102.683 68.1275 101.626 68.2528 101.626Z" fill="#E7996E"/>
<path d="M68.2668 102.066C68.2668 102.182 67.1343 102.016 65.7613 101.946C64.3883 101.876 63.2558 101.916 63.2558 101.801C63.2558 101.686 64.3632 101.465 65.7613 101.54C67.1594 101.615 68.2668 101.961 68.2668 102.066Z" fill="#E7996E"/>
<path d="M63.445 101.41C63.5502 101.41 63.445 102.628 62.8888 103.991C62.3326 105.354 61.5208 106.261 61.4356 106.196C61.3504 106.131 61.9668 105.143 62.513 103.831C63.0592 102.518 63.3247 101.39 63.445 101.41Z" fill="#E7996E"/>
<path d="M144.203 102.885C144.203 102.885 152.682 91.8611 153.609 91.36C154.536 90.8589 166.341 89.1552 166.341 89.1552C166.341 89.1552 165.84 92.8833 162.428 93.9807C160.013 94.7574 157.181 95.3637 157.181 95.3637C157.181 95.3637 158.123 102.589 156.385 105.486C154.95 107.699 153.324 109.781 151.524 111.709L144.203 102.885Z" fill="#EFBE9D"/>
<path d="M154.804 107.152C155.561 106.258 156.159 105.241 156.572 104.145C156.978 102.936 157.211 101.676 157.264 100.402C157.304 99.649 157.304 98.8946 157.264 98.1419C157.232 97.7477 157.176 97.3561 157.094 96.9693C156.992 96.5474 156.978 96.1089 157.053 95.6815C157.1 95.569 157.168 95.4669 157.254 95.3809C157.34 95.2949 157.442 95.2267 157.555 95.1804C157.746 95.087 157.946 95.0115 158.151 94.9549C158.542 94.8455 158.938 94.7569 159.338 94.6893C160.081 94.5723 160.814 94.4049 161.533 94.1882C162.76 93.8528 163.877 93.1994 164.77 92.2941C165.345 91.659 165.782 90.9117 166.053 90.0993C166.254 89.523 166.319 89.1873 166.344 89.1923C166.347 89.2753 166.337 89.3582 166.314 89.4378C166.275 89.6719 166.219 89.9029 166.148 90.1294C165.909 90.9753 165.484 91.7574 164.906 92.4194C164.006 93.373 162.865 94.0656 161.603 94.4237C160.877 94.6563 160.135 94.8371 159.384 94.9649C158.993 95.0338 158.607 95.1224 158.226 95.2305C158.034 95.2818 157.848 95.3523 157.67 95.441C157.506 95.5024 157.371 95.6243 157.294 95.7817C157.236 96.1689 157.253 96.5635 157.344 96.9442C157.429 97.3424 157.485 97.7459 157.514 98.1519C157.557 98.9129 157.557 99.6758 157.514 100.437C157.45 101.732 157.194 103.011 156.753 104.23C156.442 105.036 156.008 105.788 155.465 106.46C155.319 106.646 155.16 106.822 154.989 106.986C154.934 107.048 154.872 107.104 154.804 107.152Z" fill="#E7996E"/>
</svg>
