<svg width="22" height="23" viewBox="0 0 22 23" fill="none" xmlns="http://www.w3.org/2000/svg">
<path d="M0 7.94738C0 5.76359 -6.55651e-08 4.67285 0.6446 3.99432C1.2892 3.3158 2.3254 3.3158 4.4 3.3158H17.6C19.6746 3.3158 20.7108 3.3158 21.3554 3.99432C22 4.67285 22 5.76359 22 7.94738C22 8.49274 22 8.76601 21.8394 8.93622C21.6777 9.10527 21.417 9.10527 20.9 9.10527H1.1C0.5819 9.10527 0.3223 9.10527 0.1606 8.93622C-9.83477e-08 8.76601 0 8.49159 0 7.94738ZM0 18.3684C0 20.5522 -6.55651e-08 21.643 0.6446 22.3215C1.2892 23 2.3254 23 4.4 23H17.6C19.6746 23 20.7108 23 21.3554 22.3215C22 21.643 22 20.5522 22 18.3684V12.579C22 12.0336 22 11.7603 21.8394 11.5901C21.6777 11.4211 21.417 11.4211 20.9 11.4211H1.1C0.5819 11.4211 0.3223 11.4211 0.1606 11.5901C-9.83477e-08 11.7603 0 12.0347 0 12.579V18.3684Z" fill="white"/>
<path d="M5.5 1V4.47368M16.5 1V4.47368" stroke="white" stroke-width="2" stroke-linecap="round"/>
</svg>
