<svg width="39" height="52" viewBox="0 0 39 52" fill="none" xmlns="http://www.w3.org/2000/svg">
<path d="M19.5 24.7C17.653 24.7 15.8816 24.0152 14.5755 22.7962C13.2695 21.5772 12.5357 19.9239 12.5357 18.2C12.5357 16.4761 13.2695 14.8228 14.5755 13.6038C15.8816 12.3848 17.653 11.7 19.5 11.7C21.347 11.7 23.1184 12.3848 24.4245 13.6038C25.7306 14.8228 26.4643 16.4761 26.4643 18.2C26.4643 19.0536 26.2842 19.8988 25.9342 20.6874C25.5842 21.4761 25.0712 22.1926 24.4245 22.7962C23.7778 23.3998 23.0101 23.8786 22.1651 24.2052C21.3202 24.5319 20.4146 24.7 19.5 24.7ZM19.5 0C14.3283 0 9.36838 1.91749 5.71142 5.33066C2.05446 8.74382 0 13.3731 0 18.2C0 31.85 19.5 52 19.5 52C19.5 52 39 31.85 39 18.2C39 13.3731 36.9455 8.74382 33.2886 5.33066C29.6316 1.91749 24.6717 0 19.5 0Z" fill="#E02027"/>
</svg>
