<svg width="1006" height="162" viewBox="0 0 1006 162" fill="none" xmlns="http://www.w3.org/2000/svg">
<path d="M0.0124998 159V2.99999H58.0125L106.412 132.6H111.213V2.99999H141.613V159H83.2125L35.0125 29.4H30.4125V159H0.0124998ZM172.044 159V2.99999H278.444V29.4H205.244V63.8H261.644V88.2H205.244V132.6H279.644V159H172.044ZM340.997 159V29.4H294.797V2.99999H420.797V29.4H374.597V159H340.997ZM455.044 159L432.444 4.19999V2.99999H465.244L483.844 132.6H488.644L511.044 2.99999H566.644L589.244 132.6H594.044L612.444 2.99999H643.244V4.19999L620.644 159H562.644L540.244 29.4H535.444L513.044 159H455.044ZM728.797 161.8C712.264 161.8 698.464 158.533 687.397 152C676.464 145.333 668.264 135.933 662.797 123.8C657.464 111.667 654.797 97.4 654.797 81C654.797 64.4667 657.464 50.2 662.797 38.2C668.264 26.0667 676.464 16.7333 687.397 10.2C698.464 3.53333 712.264 0.199994 728.797 0.199994C745.464 0.199994 759.264 3.53333 770.197 10.2C781.13 16.7333 789.264 26.0667 794.597 38.2C800.064 50.2 802.797 64.4667 802.797 81C802.797 97.4 800.064 111.667 794.597 123.8C789.264 135.933 781.13 145.333 770.197 152C759.264 158.533 745.464 161.8 728.797 161.8ZM728.797 136.6C742.264 136.6 752.13 131.8 758.397 122.2C764.797 112.467 767.997 98.7333 767.997 81C767.997 63.1333 764.797 49.4 758.397 39.8C752.13 30.2 742.264 25.4 728.797 25.4C715.33 25.4 705.397 30.2 698.997 39.8C692.73 49.4 689.597 63.1333 689.597 81C689.597 98.7333 692.73 112.467 698.997 122.2C705.397 131.8 715.33 136.6 728.797 136.6ZM824.075 159V2.99999H890.275C903.608 2.99999 914.408 4.93333 922.675 8.8C931.075 12.5333 937.208 17.7333 941.075 24.4C945.075 30.9333 947.075 38.5333 947.075 47.2C947.075 57.0667 944.475 65.6 939.275 72.8C934.075 80 926.408 85.1333 916.275 88.2L951.275 157.8V159H915.675L883.875 93H857.275V159H824.075ZM857.275 68.6H885.475C894.142 68.6 900.875 67.1333 905.675 64.2C910.608 61.2667 913.075 56 913.075 48.4C913.075 40.6667 910.608 35.4 905.675 32.6C900.742 29.6667 894.008 28.2 885.475 28.2H857.275V68.6ZM970.091 159V2.99999H1002.89V63H1014.89L1059.69 2.99999H1096.89V4.19999L1042.89 74.6L1105.69 157.8V159H1065.69L1014.89 89.4H1002.89V159H970.091Z" fill="black" fill-opacity="0.1"/>
</svg>
