<svg width="220" height="49" viewBox="0 0 220 49" fill="none" xmlns="http://www.w3.org/2000/svg">
<g clip-path="url(#clip0_447_1928)">
<path d="M189.265 0.904785C177.897 0.904785 168.535 9.30237 168.535 19.8375C168.535 30.22 177.73 38.7702 189.265 38.7702C200.633 38.7702 209.995 30.3727 209.995 19.8375C209.995 9.30237 200.633 0.904785 189.265 0.904785ZM205.314 9.30237C204.311 9.9131 203.141 10.5238 201.97 11.1346C201.302 9.9131 200.466 8.69163 199.463 7.62285C200.299 7.1648 201.134 6.55407 201.803 6.09602C203.308 6.85943 204.478 8.0809 205.314 9.30237ZM196.621 3.04235C198.292 3.65308 199.797 4.4165 201.302 5.48528C200.633 6.09602 199.797 6.55407 198.961 7.01212C197.958 5.94333 196.788 5.02723 195.618 4.11113C195.952 3.65308 196.286 3.34772 196.621 3.04235ZM198.292 7.31748C197.122 7.92822 195.952 8.23358 194.782 8.69163C194.28 7.62285 193.779 6.55407 193.11 5.63797C193.779 5.3326 194.447 5.02723 194.949 4.56918C196.119 5.3326 197.289 6.2487 198.292 7.31748ZM195.785 2.73698C195.45 3.04235 195.116 3.34772 194.949 3.65308C193.779 3.04235 192.776 2.43162 191.438 1.97357C192.943 1.97357 194.447 2.27893 195.785 2.73698ZM194.28 4.11113C193.779 4.4165 193.277 4.72187 192.776 4.87455C192.107 3.95845 191.438 3.19503 190.77 2.27893C191.94 2.73698 193.11 3.34772 194.28 4.11113ZM189.599 2.43162C190.435 3.19503 191.104 4.11113 191.773 5.17992C191.104 5.3326 190.435 5.48528 189.599 5.48528V2.43162ZM189.599 6.2487C190.435 6.2487 191.438 6.09602 192.274 5.79065C192.943 6.70675 193.444 7.77553 193.946 8.84432C192.608 9.14968 191.104 9.30237 189.599 9.45505V6.2487ZM188.763 2.43162V5.48528C188.095 5.48528 187.426 5.3326 186.59 5.17992C187.426 4.26382 188.095 3.34772 188.763 2.43162ZM185.921 4.87455C185.42 4.72187 184.751 4.4165 184.417 4.11113C185.587 3.5004 186.757 2.88967 187.928 2.43162C187.092 3.19503 186.423 3.95845 185.921 4.87455ZM187.092 1.82088C185.921 2.27893 184.751 2.88967 183.581 3.5004C183.247 3.19503 182.912 2.88967 182.745 2.5843C184.083 2.27893 185.587 1.97357 187.092 1.82088ZM201.302 34.1897C198.627 32.8156 198.46 30.8307 198.627 30.22C198.794 29.4566 199.296 29.7619 199.63 29.7619C201.469 29.7619 203.308 29.3039 205.648 27.0136C208.323 24.5707 209.159 19.0741 204.98 15.5624C200.633 11.7453 195.952 12.356 192.943 15.8677C192.274 16.6312 190.77 17.0892 189.599 17.0892C187.593 17.0892 188.931 18.4634 188.931 18.7687C188.931 19.0741 188.596 19.2268 188.429 19.2268C187.76 19.0741 188.095 19.9902 188.095 20.1429C188.095 20.2956 187.76 20.6009 187.76 20.6009C186.925 20.6009 187.092 21.2117 187.259 21.517C187.259 21.6697 187.259 21.9751 186.925 22.1278C186.59 22.2804 186.423 22.8912 186.423 23.3492C186.423 24.1126 187.259 24.7234 188.596 25.6395C189.934 26.5556 190.101 27.4717 190.101 28.0824C190.101 28.6931 190.268 29.7619 190.435 30.3727C190.77 31.1361 190.77 32.6629 188.931 32.6629C186.59 32.8156 182.578 34.3424 182.244 34.4951C180.906 34.9532 179.234 35.1058 177.897 34.8005C177.228 34.3424 176.56 33.8844 175.891 33.2736C175.557 32.5102 176.058 31.5941 176.56 30.9834C177.395 31.7468 178.399 31.5941 179.067 31.5941C179.736 31.5941 182.745 31.1361 183.247 30.9834C183.748 30.8307 183.915 30.8307 184.083 30.9834C185.253 31.4414 186.924 31.4414 187.593 29.4566C188.262 27.319 186.757 27.9297 186.423 28.0824C186.256 28.2351 185.921 28.0824 186.089 27.9297C186.423 27.4717 185.921 27.4717 185.754 27.4717C185.086 27.4717 184.25 28.0824 184.083 28.2351C183.748 28.3878 183.581 28.3878 183.414 28.3878C182.578 27.9297 180.07 28.5405 179.234 27.319C179.234 27.0136 178.566 21.9751 178.231 21.059C178.231 20.9063 178.064 20.6009 178.399 20.2956C179.067 19.3795 180.739 20.2956 181.742 20.2956C182.912 20.2956 183.079 19.8375 183.414 19.5321C183.748 19.2268 183.915 19.3795 184.083 19.2268C184.25 19.0741 184.083 18.9214 184.083 18.7687C184.083 18.616 184.25 18.7687 184.417 18.616C184.584 18.4634 184.417 18.158 184.417 18.0053C184.751 17.5473 185.42 17.8526 185.086 16.9365C184.918 16.3258 185.253 15.7151 185.587 15.4097C186.089 14.799 188.262 12.0507 184.584 9.14968C181.073 6.40138 177.395 6.70675 175.055 8.997C172.715 11.2872 173.885 14.6463 174.052 15.5624C174.219 16.4785 173.55 17.2419 172.715 17.5473C172.046 17.8526 170.541 18.7687 169.538 19.5321C169.705 12.2033 174.553 5.79065 181.909 3.19503C182.244 3.5004 182.578 3.95845 182.912 4.26382C182.076 4.87455 180.237 6.2487 180.237 6.2487C180.237 6.2487 180.405 6.2487 180.739 6.40138C180.906 6.40138 181.241 6.55407 181.241 6.55407C181.241 6.55407 182.745 5.3326 183.581 4.87455C184.083 5.3326 184.751 5.63797 185.42 5.94333C185.086 6.55407 184.083 8.0809 184.083 8.0809C184.083 8.0809 184.25 8.23358 184.417 8.23358C184.584 8.38627 184.751 8.38627 184.751 8.38627C184.751 8.38627 185.754 6.70675 186.089 6.09602C186.925 6.40138 187.76 6.55407 188.596 6.55407V9.60773C188.095 9.60773 186.925 9.60773 186.423 9.45505H186.089L186.256 9.76042C186.423 9.9131 186.423 10.0658 186.59 10.2185C186.925 10.2185 188.095 10.2185 188.596 10.2185V15.8677H189.432V14.4936C190.77 14.4936 191.773 14.3409 192.943 14.1882L194.113 13.2721H193.444C192.107 13.4248 190.937 13.5775 189.934 13.5775C189.934 13.5775 189.599 13.5775 189.432 13.5775V10.0658C190.937 10.0658 192.608 9.9131 194.113 9.45505C194.447 10.3711 195.283 12.6614 195.283 12.6614L196.119 12.356C196.119 12.356 195.283 10.0658 194.949 9.14968C196.286 8.84432 197.457 8.23358 198.627 7.77553C199.63 8.84432 200.466 10.0658 201.134 11.2872C200.466 11.5926 199.463 11.898 199.463 11.898C200.299 12.0507 200.967 12.2033 200.967 12.2033C200.967 12.2033 201.302 12.0507 201.469 12.0507C201.469 12.2033 201.636 12.5087 201.636 12.5087L202.806 12.9668L202.639 12.6614C202.639 12.6614 202.305 11.898 202.138 11.7453C203.308 11.2872 204.478 10.6765 205.648 9.9131C207.821 12.8141 208.825 16.3258 208.825 19.8375C209.159 25.6395 205.983 30.8307 201.302 34.1897Z" fill="#009EDB"/>
<path d="M166.695 5.94333L166.36 6.2487C165.19 7.1648 162.348 9.76041 162.85 12.6614V12.8141L163.017 13.4248L163.351 13.1194C165.023 11.7453 166.36 9.30236 166.862 6.55407L167.029 5.79065L166.695 5.94333Z" fill="#009EDB"/>
<path d="M161.012 10.8292L160.844 11.1346C160.677 11.5926 160.343 12.6614 160.176 13.8829C159.841 15.7151 160.008 18.4634 161.68 20.4482L161.847 20.7536L162.015 21.059L162.349 19.8375C162.683 17.6999 162.182 13.2721 161.346 11.2872L161.012 10.6765V10.8292Z" fill="#009EDB"/>
<path d="M159.006 18.4634V18.7688C158.839 20.601 159.006 25.3342 163.186 27.9298L163.687 28.2352V27.6244C163.687 25.7922 161.347 20.4483 159.675 18.6161L159.173 18.0054L159.006 18.4634Z" fill="#009EDB"/>
<path d="M159.675 26.8609V27.1663C160.344 29.9146 163.018 34.1897 167.365 35.5639L168.034 35.7165L167.866 35.1058C167.031 33.1209 162.851 28.3877 160.176 26.8609L159.675 26.5555V26.8609Z" fill="#009EDB"/>
<path d="M168.535 10.0658L168.033 10.2185C164.857 12.0507 163.353 14.1882 163.353 16.9365V17.5472L163.854 17.2419C165.526 15.8677 167.866 12.5087 168.368 10.6765L168.535 9.91309V10.0658Z" fill="#009EDB"/>
<path d="M166.528 15.8678L166.361 16.1731C165.525 16.9366 162.85 19.5322 163.017 22.7385C163.017 23.1966 163.184 23.8073 163.352 24.2654L163.519 24.7234L163.853 24.2654C165.191 22.5858 166.862 18.3107 166.695 16.3258V15.7151L166.528 15.8678Z" fill="#009EDB"/>
<path d="M166.695 21.5171L166.528 21.8224C165.19 23.6546 164.521 25.4868 164.521 27.319C164.521 28.5405 165.023 29.762 165.859 30.9834L166.193 31.4415L166.36 30.9834C166.862 29.9146 167.363 26.7083 167.363 24.1127C167.363 23.1966 167.196 22.4332 167.029 21.9751L166.862 21.3644L166.695 21.5171Z" fill="#009EDB"/>
<path d="M168.201 27.4716L168.034 27.777C167.7 28.9985 167.366 30.0672 167.533 31.2887C167.533 33.7316 168.87 35.7165 171.211 37.0907L171.545 37.2434L171.712 36.7853V36.3273C171.712 34.3424 170.04 29.1511 168.703 27.6243L168.369 27.1663L168.201 27.4716Z" fill="#009EDB"/>
<path d="M163.687 35.4112L163.854 35.7166C165.526 38.3122 168.535 41.8239 174.052 40.9078H174.553L174.219 40.6025C173.216 39.2283 166.529 35.7166 164.188 35.4112L163.52 35.2585L163.687 35.4112Z" fill="#009EDB"/>
<path d="M171.879 42.1293L171.043 42.282L171.879 42.5873C175.39 43.9615 179.736 44.2669 182.411 43.5034C183.414 43.1981 183.916 42.74 184.584 42.1293C189.098 42.5873 193.277 45.9464 195.785 48.6947L195.952 48.8474H196.119C196.454 48.6947 196.788 48.3893 196.955 48.2366L197.122 48.0839L196.955 47.9313C194.448 44.8776 190.435 43.0454 190.268 42.8927C186.59 41.3659 180.238 40.1444 171.879 42.1293Z" fill="#009EDB"/>
<path d="M172.044 33.579V33.8843C172.546 36.938 173.883 40.9078 179.567 40.4497H179.901L179.734 40.1443C179.4 38.7702 174.217 34.8004 172.378 33.7316L171.877 33.4263L172.044 33.579Z" fill="#009EDB"/>
<path d="M211.499 5.63794L211.666 6.40136C212.168 9.14966 213.505 11.5926 215.177 12.9667L215.511 13.2721L215.678 12.6614V12.5087C216.18 9.60771 213.338 7.01209 212.168 6.09599L211.833 5.79062L211.499 5.63794Z" fill="#009EDB"/>
<path d="M217.35 10.5238L217.016 11.1345C216.18 13.1194 215.845 17.5472 216.012 19.6848L216.347 20.9063L216.514 20.7536L216.681 20.4482C218.52 18.4633 218.52 15.8677 218.186 13.8828C218.019 12.5087 217.684 11.5926 217.517 11.1345L217.35 10.8292V10.5238Z" fill="#009EDB"/>
<path d="M219.524 18.158L219.022 18.7687C217.35 20.7536 215.01 25.9448 215.01 27.777V28.3877L215.511 28.0824C219.691 25.6394 219.858 20.9063 219.691 18.9214V18.616L219.524 18.158Z" fill="#009EDB"/>
<path d="M218.856 26.5555L218.187 26.8609C215.513 28.3877 211.333 33.1209 210.497 35.1058L210.33 35.7165L210.999 35.5639C215.345 34.3424 218.187 29.9146 218.689 27.1663V26.8609L218.856 26.5555Z" fill="#009EDB"/>
<path d="M209.994 9.76038L210.161 10.5238C210.83 12.5087 212.836 15.8677 214.675 17.2419L215.177 17.5472V16.9365C215.344 14.1882 213.839 12.0506 210.663 10.2184L210.329 10.0657L209.994 9.76038Z" fill="#009EDB"/>
<path d="M211.834 15.7151V16.3258C211.667 18.3107 213.506 22.7385 214.676 24.2654L215.01 24.7234L215.177 24.2654C215.345 23.6546 215.512 23.1966 215.512 22.7385C215.679 19.5322 213.004 16.9366 212.168 16.1731L212.001 16.0205L211.834 15.7151Z" fill="#009EDB"/>
<path d="M211.665 21.2117L211.497 21.8224C211.33 22.2805 211.163 23.0439 211.163 23.96C211.163 26.5556 211.497 29.7619 212.166 30.8307L212.333 31.2888L212.668 30.8307C213.504 29.7619 214.005 28.5405 214.005 27.1663C214.005 25.4868 213.336 23.5019 211.999 21.6697L211.832 21.3644L211.665 21.2117Z" fill="#009EDB"/>
<path d="M210.163 27.1663L209.829 27.6243C208.491 29.1511 206.819 34.3424 206.819 36.3273C206.819 36.3273 206.819 36.6326 206.819 36.7853L206.987 37.2434L207.321 37.0907C209.661 35.7165 210.832 33.7316 210.999 31.2887C210.999 30.2199 210.832 28.9985 210.497 27.777L210.33 27.4716L210.163 27.1663Z" fill="#009EDB"/>
<path d="M215.008 35.1058L214.34 35.2585C211.999 35.5639 205.312 39.0756 204.309 40.4498L203.975 40.7551H204.476C209.993 41.6712 213.002 38.1595 214.674 35.5639L214.841 35.2585L215.008 35.1058Z" fill="#009EDB"/>
<path d="M188.427 42.8927C188.26 42.8927 184.248 44.8776 181.74 47.9313L181.573 48.0839L181.74 48.2366C181.908 48.3893 182.409 48.6947 182.576 48.8474H182.743L182.911 48.6947C185.418 45.9464 189.598 42.4347 194.111 42.1293C194.78 42.74 195.449 43.1981 196.285 43.5034C198.792 44.2669 203.306 43.9615 206.817 42.5873L207.653 42.282L206.817 42.1293C198.291 40.1444 191.938 41.3659 188.427 42.8927Z" fill="#009EDB"/>
<path d="M206.483 33.2737L205.982 33.579C204.143 34.6478 199.128 38.6176 198.626 39.9917L198.459 40.2971H198.793C204.31 40.7552 205.648 36.7854 206.316 33.7317V33.4264L206.483 33.2737Z" fill="#009EDB"/>
<path d="M65.3867 2.73694H72.4081V8.5389H65.3867V2.73694ZM66.0554 15.257H71.9066V43.6561H66.0554V15.257Z" fill="#009EDB"/>
<path d="M21.7544 15.257H27.6056V43.6561H21.9216V39.5336H21.7544C19.414 43.0453 15.4017 44.5722 11.0552 44.5722C4.53529 44.5722 0.857422 39.9917 0.857422 34.3424V15.257H6.70858V32.0521C6.70858 36.938 7.87881 40.6024 13.5628 40.6024C15.9033 40.6024 19.2468 39.5336 20.417 36.4799C21.5872 33.8843 21.5872 30.5253 21.5872 29.7619V15.257H21.7544Z" fill="#009EDB"/>
<path d="M39.3062 19.3795C41.4795 15.8678 45.6589 14.3409 48.8353 14.3409C51.0086 14.3409 60.5376 14.799 60.5376 23.96V43.5035H54.6864V25.6395C54.6864 20.9063 52.5131 18.4634 47.4979 18.4634C47.4979 18.4634 44.3215 18.3107 41.8139 20.601C40.978 21.3644 39.3062 22.5858 39.3062 28.2351V43.6561H33.4551V15.257H39.3062V19.3795Z" fill="#009EDB"/>
<path d="M96.4814 24.2654C96.1471 20.7536 94.3081 18.3107 90.1287 18.3107C84.6119 18.3107 82.4386 22.7385 82.4386 29.3039C82.4386 35.8693 84.6119 40.2971 90.1287 40.2971C93.9738 40.2971 96.3142 38.0069 96.6486 33.8844H102.5C101.998 40.2971 96.8158 44.1142 89.9615 44.1142C80.0982 44.1142 76.0859 37.7015 76.0859 29.4566C76.0859 21.2117 80.5997 14.3409 90.4631 14.3409C96.9829 14.3409 101.831 18.158 102.165 24.2654H96.4814Z" fill="#009EDB"/>
<path d="M111.194 30.3727C110.693 35.2586 113.033 40.4498 118.884 40.4498C123.398 40.4498 125.739 38.7703 126.407 34.6478H132.593C131.59 41.0605 126.24 44.2669 118.884 44.2669C109.021 44.2669 105.009 37.8542 105.009 29.6093C105.009 21.3644 109.523 14.4937 119.386 14.4937C128.581 14.6463 132.927 19.9903 132.927 27.7771V30.3727H111.194ZM126.909 26.7083C127.076 21.9751 124.736 18.3107 119.052 18.3107C114.203 18.3107 111.361 22.1278 111.361 26.7083H126.909Z" fill="#009EDB"/>
<path d="M139.612 43.3507V18.9214H134.263V15.257H139.612V9.14964C139.779 3.04231 144.962 1.36279 149.309 1.36279C150.646 1.36279 152.151 1.66816 153.488 1.97353V6.40134C152.485 6.40134 151.482 6.24866 150.479 6.24866C147.135 6.24866 145.296 7.01207 145.463 10.0657V15.257H152.652V18.9214H145.463V43.3507H139.612Z" fill="#009EDB"/>
</g>
<defs>
<clipPath id="clip0_447_1928">
<rect width="218.833" height="48.0952" fill="white" transform="translate(0.857422 0.904785)"/>
</clipPath>
</defs>
</svg>
