<svg width="116" height="116" viewBox="0 0 116 116" fill="none" xmlns="http://www.w3.org/2000/svg">
<g clip-path="url(#clip0_447_1965)">
<path d="M94.1373 30.6824C101.907 43.4949 100.287 63.0132 90.927 74.5452C80.5636 88.2307 63.4766 94.1681 46.5591 89.5076C31.2143 85.4857 18.6975 70.8407 17.2944 55.0053C15.3826 38.2141 23.1884 22.909 37.3861 14.5224C48.3266 7.79504 65.2044 7.03033 76.5886 13.415C83.5071 16.7768 90.4652 23.6737 94.1049 30.6751L94.1373 30.6824ZM58.9785 10.9296C59.1228 12.4627 59.1228 14.6089 58.9785 16.3584C59.0218 16.0806 59.2779 16.0806 59.4474 15.976C59.9813 16.1672 59.9813 16.8273 59.8298 17.2746H59.7216C62.463 17.0834 65.107 17.7652 67.6392 18.5299C70.2797 18.869 72.581 22.0433 75.1782 20.3587C75.8996 21.1667 77.1621 20.402 77.5408 21.6573C78.54 21.8485 79.0739 22.8476 79.7556 23.4861C79.6691 24.4023 80.5203 24.828 80.8197 25.5061V25.3979C81.6927 23.8216 83.0742 22.4617 84.6072 21.6537C79.2262 16.5167 72.4538 13.0747 65.1323 11.7557C63.1483 11.3517 60.9408 11.4779 58.9821 10.926L58.9785 10.9296ZM31.2432 21.7619L35.7521 26.0833C41.3517 20.5787 48.8247 17.3937 56.6735 17.1664C56.3741 15.2546 56.4823 13.0795 56.587 11.1208C46.8837 11.6727 38.4358 15.334 31.2432 21.7619ZM87.7094 12.3941L90.6456 15.3304C93.6251 19.9259 97.7986 24.4817 101.925 27.3782C101.052 25.5494 100.861 23.3995 99.9412 21.5707C98.1124 16.4414 92.4023 13.9524 87.7022 12.3978L87.7094 12.3941ZM27.7587 12.9713C24.1155 14.4141 20.1837 15.6117 17.4783 19.0169C15.3717 21.7583 14.7369 25.0624 13.6475 28.1898L16.8579 25.4484C21.7528 22.0433 23.0261 16.4883 27.7515 12.9749L27.7587 12.9713ZM63.6858 14.2266L60.9444 15.4602C60.645 15.6045 59.6891 15.1211 59.837 15.9291C60.3708 16.2682 60.9011 16.6506 61.5612 16.7371C63.2854 15.9724 65.3487 17.2277 66.7916 15.6298C66.3659 14.4574 64.8329 14.4178 63.6894 14.223L63.6858 14.2266ZM98.8446 17.7399C102.91 20.42 102.632 25.3582 104.075 29.3621C104.457 31.0431 105.482 32.5725 105.608 34.257C103.437 27.9373 96.0743 27.2592 93.4159 21.2966L94.2455 24.7883C96.3088 31.5553 104.382 33.1929 107.44 39.3251C106.481 34.8991 108.162 30.2567 106.827 25.8957C105.72 22.1515 102.636 18.8473 98.8446 17.7399ZM10.044 23.7819C6.94185 28.3377 9.46685 34.6394 8.60114 40.0429C9.70853 37.8281 11.8584 35.7215 13.7305 34.1488C18.0519 31.3605 21.9259 26.9129 22.0738 21.9567C19.7725 27.8471 12.1975 28.6155 10.3217 34.8919H10.1306C12.9189 29.676 11.3426 22.339 16.6595 18.4794C13.8712 19.2658 11.5085 21.329 10.0404 23.7819H10.044ZM58.8847 19.273C59.1841 21.1848 59.0759 23.4861 58.9713 25.3618C63.8229 25.4484 68.422 26.9381 72.2095 29.7625C71.9843 29.5946 71.8015 29.3763 71.6757 29.1252C71.5498 28.874 71.4843 28.597 71.4845 28.3161H71.6287C71.7153 27.6307 70.6692 27.3169 71.0155 26.6351C71.9317 26.7217 72.6135 27.977 73.1221 28.6551C75.7625 28.6119 74.2295 31.7573 76.2242 32.6951C76.6932 32.9296 76.08 33.8855 76.8014 33.8025C77.4146 34.2931 78.1865 34.8486 78.0567 35.6314C78.2911 37.0165 79.3985 35.2057 80.0154 36.1003C80.5492 36.5259 79.633 36.7856 79.7376 37.2906C80.0767 37.4349 80.3977 36.9516 80.6538 37.3772C80.762 37.8461 80.4193 38.0373 80.1849 38.2934C79.9504 39.1014 80.9063 38.6325 81.1841 39.0149C81.6097 39.9311 81.9488 41.3126 81.2706 42.3334C82.2301 43.3795 81.1264 44.44 80.9316 45.4356C80.2462 46.0957 80.1236 47.6071 78.825 47.2644C78.5256 47.7982 79.0162 48.4187 78.7168 48.8407L81.0145 48.9489C79.716 47.1201 81.3969 45.3526 81.9307 43.7186C82.2085 43.6104 82.544 43.0332 82.782 43.6104L82.5043 45.8251C83.0814 46.6981 82.8433 47.9317 83.0381 48.9525L88.9322 48.8443C88.5066 44.9486 87.6986 41.2044 86.0573 37.8209C85.6317 37.9652 85.1411 38.2898 84.6722 38.0121C84.0121 37.1391 83.4818 36.0534 82.5656 35.332C81.8009 35.332 81.267 34.7188 80.6538 34.3328C79.312 34.3761 79.8025 32.421 78.504 32.6951C77.8186 32.3561 77.3136 32.0098 77.1188 31.2054C77.0755 30.2892 77.0106 29.1421 76.1196 28.464C75.6291 28.1862 75.1601 28.5505 74.8211 28.8463C74.0996 29.3153 73.8002 28.5073 73.8219 27.9301C73.0139 27.3169 73.8652 26.6315 73.4395 25.9101C72.2852 24.9939 72.8263 23.2697 71.268 22.505C68.7358 21.293 66.0737 20.521 63.2602 19.9511C61.8354 19.6986 60.259 19.6517 58.8775 19.2658L58.8847 19.273ZM76.4226 19.273C76.1232 19.3595 76.2315 19.8501 76.3361 20.0377C77.3352 20.1243 77.3352 21.8413 78.5076 21.1018L78.2298 19.9114C77.9304 19.1648 76.9132 19.5507 76.4226 19.273ZM37.0507 27.6524C38.5837 28.7165 40.0735 30.3938 41.3287 31.7825C45.3687 27.8435 50.8227 25.4412 56.6735 25.3546C56.5653 23.4428 56.5653 21.3759 56.6735 19.4605C49.2681 20.0377 42.6057 22.7142 37.0507 27.6524ZM86.0717 23.0569L82.0498 27.3782L81.3897 27.4648C81.9235 27.4648 81.772 28.078 82.1111 28.3161C83.792 29.5064 84.5639 31.191 85.9852 32.4463C86.519 33.7448 87.897 34.5961 87.897 36.1905C89.8809 40.0645 90.8115 44.5951 91.0243 49.0463C93.0668 48.8283 95.1207 48.7355 97.1745 48.7686L96.9833 48.5774C96.6226 38.6397 92.5574 30.181 86.0645 23.0569H86.0717ZM30.0528 23.6845L29.8616 23.1074C23.3327 30.2134 19.6462 39.1952 19.1556 49.0066L25.396 49.0932C25.1615 47.1093 25.6954 45.1975 25.9299 43.2388C27.2717 37.4674 29.7606 32.0026 34.1902 27.7029L30.0528 23.6845ZM107.632 25.1274C110.463 29.2575 108.844 35.065 108.678 39.8986C108.786 42.2432 109.168 44.559 109.017 46.8965C108.678 45.9803 108.591 44.9847 108.357 44.0216C107.202 38.7912 101.056 36.2121 98.5669 31.8294C98.9492 33.3192 99.227 34.8089 99.7572 36.2301C101.907 42.4236 108.335 46.5935 109.208 53.3208C109.785 46.8929 114.258 41.7635 112.613 34.762C111.719 31.2487 110.268 27.8003 107.635 25.1201L107.632 25.1274ZM7.83282 26.0183C5.61803 28.6624 4.12828 31.8294 3.35996 35.2274C1.87021 42.2721 6.10139 47.7009 7.03925 54.1288C8.27289 46.0632 16.7641 40.9771 17.2114 32.5473C14.6864 37.1031 8.67689 39.7399 7.5695 45.1254C7.5695 45.9983 7.29175 46.8496 7.10057 47.6792L6.90939 47.488L7.20878 43.9963C8.25485 37.7812 4.61164 31.3533 7.82199 26.0544L7.83282 26.0183ZM56.807 27.3818L56.6158 27.5261C51.3386 27.8255 46.9306 30.1665 42.8437 33.3336C44.4201 34.3544 45.6754 35.974 47.1651 37.3556C49.719 34.9027 53.1241 33.4599 56.6988 33.3336C56.5725 31.5878 56.4823 29.2467 56.807 27.3746V27.3818ZM58.9785 27.4684C59.2779 29.2575 59.213 31.3641 59.0867 33.2398C62.6397 33.5176 66.4308 34.964 68.9847 37.2798C70.3266 35.8947 71.8163 34.0695 73.3061 33.2398C69.1146 29.9213 64.4109 27.8544 58.9857 27.4684H58.9785ZM35.5032 28.9113V29.2936C30.6516 34.8486 27.9282 41.5326 27.4376 49.0247C29.4216 49.068 31.6075 48.9381 33.4832 49.1112L33.292 48.8335C33.6744 42.8961 35.817 37.5071 39.821 33.2326C38.205 31.934 36.7188 30.4443 35.4996 28.9113H35.5032ZM74.5794 34.6105C72.7758 36.6738 70.5141 38.867 68.808 40.8509C68.9162 41.1286 69.2336 41.428 69.2769 41.3198C69.7458 40.7427 69.3851 39.2998 70.662 39.5956C71.9173 40.0213 73.0247 39.895 74.4062 40.0645C75.171 40.4902 75.2792 41.4064 75.9826 41.7887C76.282 42.1278 75.8744 42.4489 75.7048 42.705C75.8559 42.8404 75.9849 42.9986 76.0872 43.1739C76.4695 42.8348 77.0034 42.3659 77.7248 42.5607C78.4462 42.604 78.641 43.6248 79.3011 43.751C79.6005 44.1334 79.11 44.5158 78.8322 44.6673C78.9765 45.3887 78.1469 45.6268 78.4499 46.3049C78.8322 46.3915 79.2146 46.1967 79.3661 45.9225C80.8089 44.8584 79.6655 43.4697 79.4526 42.1783C78.8755 40.988 77.6635 40.7715 76.7112 39.8806C76.7545 39.4982 76.989 39.0726 77.2883 38.8814C77.2234 37.1788 75.4992 36.0318 74.583 34.625L74.5794 34.6105ZM41.336 34.8017C40.0374 36.3997 38.7821 38.1636 37.8442 40.0321C36.3545 42.7735 35.9325 45.9694 35.3192 49.1004L37.8442 49.0139C37.4186 48.5233 37.5052 47.8235 37.5052 47.185C38.0823 45.973 38.3132 43.7799 40.1456 43.8845C41.0185 43.6933 40.1023 43.0116 40.8057 42.6509C42.1043 42.4597 42.4434 41.2441 43.5471 40.6669C44.5932 40.5587 44.8024 39.0906 45.8449 38.986C44.099 37.774 42.9087 36.2446 41.336 34.7945V34.8017ZM59.0831 35.5231L59.2274 39.6533L60.8037 40.2305C61.2726 39.4225 62.1023 39.2313 62.6325 38.5495C63.1231 38.3151 63.1231 38.9319 63.354 39.1267C63.6533 41.0024 61.5504 41.8501 60.4394 42.6184H60.9083C62.0987 41.3848 62.784 44.1514 64.0105 42.8961C64.2449 41.3198 66.4633 41.511 66.9467 39.9599C66.5643 40.3423 66.3695 39.9166 66.0305 39.8156C66.1387 39.2818 66.8817 38.9427 67.2208 38.582C64.6958 37.0309 62.0265 36.0065 59.0687 35.5376L59.0831 35.5231ZM56.6158 35.6494C53.4055 36.1183 50.3755 37.287 48.0813 39.7796C48.846 39.9239 49.6143 40.2485 50.1879 40.7788C50.3791 41.1611 49.8488 41.2044 49.8055 41.4389C50.2961 42.1603 50.3394 41.2946 50.8516 41.1611C51.3205 41.63 51.7245 41.9691 52.3846 41.63C52.7237 42.2072 53.2576 41.6733 53.6832 41.7166C53.8275 41.2477 54.4912 40.8653 54.2171 40.3315C54.4515 39.9058 54.5561 39.2241 55.1333 39.2241C54.7942 41.0132 56.4751 39.2241 56.9621 40.0754C56.4499 38.7335 56.8358 36.948 56.623 35.6494H56.6158ZM114.06 40.0321C115.124 46.2255 111.379 50.8896 109.846 56.2931C108.995 58.3564 109.356 60.9968 108.043 62.8076C107.956 61.7615 108.533 60.7876 108.62 59.6802C109.579 52.7617 103.577 48.6567 102.192 42.7987C102.12 44.2942 102.213 45.793 102.47 47.268C102.809 54.5689 107.599 60.5062 106.214 68.1245C107.599 66.3354 108.62 64.4813 110.279 62.739C115.791 56.9676 117.198 47.3726 114.023 40.0285L114.06 40.0321ZM1.98564 40.8401C0.00170982 45.4356 0.109924 51.5028 1.60328 56.2931C2.90185 61.2349 7.60557 64.6797 10.0512 68.9541C9.62557 67.165 9.71214 64.8889 9.96464 63.0601C11.5626 56.6754 14.0948 50.5072 13.7089 43.4372C12.7494 48.4872 8.19714 52.1196 7.66328 57.3608C7.32421 59.5106 7.85446 61.6172 8.13221 63.511C7.64164 62.5515 7.17271 61.4477 7.08614 60.2104C6.33946 53.3569 0.78446 48.2924 1.97842 40.8401H1.98564ZM56.4896 43.246L56.5978 43.3326C56.706 43.9097 57.1316 44.7755 56.5978 45.1614C55.9124 46.0776 54.2531 45.8829 54.0439 47.1201C52.2548 47.654 52.9365 49.8615 52.363 51.2503C51.2087 51.528 51.6416 50.1429 51.1077 49.674L50.83 50.013C49.0264 48.6712 49.4051 51.5461 48.305 51.8166C49.517 52.0944 50.5594 51.391 51.7967 51.3477C51.8832 51.492 52.179 51.5821 52.0744 51.8166H52.2656C52.5434 51.5389 52.565 51.2034 52.5434 50.8174C52.6516 50.4351 53.1205 50.2042 53.4596 50.4351C53.3514 50.8174 53.6039 51.1204 53.9285 51.2864L53.2684 52.2026C52.9293 52.5849 53.355 53.6274 52.4604 53.5877C52.2692 53.631 52.1213 53.4795 52.1826 53.2883H51.9915L52.4604 54.1396C52.9942 54.0963 52.886 53.1404 53.5678 53.0322C54.181 52.8879 54.2531 52.1593 54.181 51.5894C54.989 50.904 55.9701 51.3116 56.8611 51.207C57.0956 51.4415 57.6258 51.5064 57.5212 51.9284C57.8603 52.6138 57.2867 53.3713 56.8611 53.9484C57.0523 54.3308 56.5834 54.6338 56.5834 55.0558C55.8619 55.8205 55.0503 55.4815 54.0583 55.7159C55.2704 56.5672 56.5906 57.1011 58.1885 56.9712C59.7216 57.0794 58.9965 55.1424 60.1003 54.5184C60.7604 54.4318 61.3123 54.6049 62.059 54.4101C62.3584 53.833 62.3981 53.1549 62.5279 52.4984C61.8678 52.199 62.1023 51.5389 62.059 51.0086C61.6766 50.5397 61.7199 49.71 60.9516 49.6235C60.8073 49.1978 61.251 49.0103 61.2294 48.6243C62.3836 48.1986 60.6161 47.5169 61.3376 46.8207C60.039 46.5863 59.7396 44.523 58.1272 45.1831C57.7449 44.6492 56.7421 44.4184 56.7421 43.6068C56.8503 43.0296 58.1488 43.2677 57.9973 43.329C57.9108 43.2208 57.7629 43.1378 57.8062 42.9899C57.3156 42.9466 56.7421 42.9899 56.421 43.2424L56.4896 43.246ZM40.1636 48.1878C38.7569 48.6567 40.1636 49.977 40.0771 50.8679C39.9328 51.5894 39.2041 51.0122 38.7785 51.3369C38.9697 52.5272 37.9705 52.7617 37.1409 52.9745C36.8631 53.7825 37.7541 54.1649 37.332 54.9332C38.3529 55.9792 39.1609 57.2309 38.9697 58.6774C39.6911 59.7235 39.5035 61.2745 39.6911 62.6164C40.0067 62.946 40.251 63.3371 40.4087 63.7654C40.5663 64.1936 40.6339 64.6498 40.6073 65.1053C40.6506 65.5959 40.1167 65.7654 39.7993 65.9566C39.417 66.4255 40.0771 66.1911 40.0771 66.5698L45.2064 61.2493C43.3131 59.0563 42.0227 56.4086 41.4622 53.5661L40.8021 53.1837C40.6939 53.9051 40.7155 54.9873 40.0807 55.2037C39.7416 54.9043 39.0598 54.7348 39.0598 54.0963C39.251 53.6707 39.5937 53.952 39.9111 53.9051C39.8679 53.5661 39.9544 53.2198 39.9977 52.906C40.1059 52.4803 39.3845 52.1845 39.9111 51.7986C40.3801 51.7553 40.5712 52.2891 40.9103 52.52L41.8265 52.0511C41.5488 51.1781 42.061 49.7966 41.74 48.8407C41.6137 48.076 40.7805 48.2275 40.1636 48.1806V48.1878ZM77.1549 50.8643L78.1757 52.0547C78.1324 53.3965 79.9648 53.8582 80.0875 55.1821C80.4698 53.9268 80.4266 52.502 80.8089 51.2431C79.6366 51.1168 78.1288 51.4956 77.1477 50.8607L77.1549 50.8643ZM90.8404 50.9293L91.0316 51.3116C90.6889 59.1186 87.5541 66.543 82.1977 72.233C83.736 73.6365 85.2127 75.106 86.6236 76.6374C91.6736 70.783 95.2014 64.2071 96.4134 56.7368C96.8391 54.825 96.7128 52.7581 97.2647 50.9293C95.389 51.4631 93.1778 51.1204 91.1145 51.2286L90.8404 50.9293ZM82.966 51.0555C83.2005 51.8202 82.7315 52.5452 82.7748 53.3533C81.9668 54.6951 83.8209 55.0342 83.3087 56.2895C82.9696 56.5672 82.6233 56.5239 82.2013 56.376C81.2418 60.1202 79.3697 63.5687 76.6896 66.5482H76.4118C77.0972 66.9738 77.6022 67.9333 78.3705 68.1245V67.5906C78.5148 67.4824 78.605 67.2083 78.8394 67.3129C80.3292 67.7818 80.4374 69.8451 80.5636 70.8046C84.4593 66.7177 86.8833 61.8445 88.1026 56.5672C88.5282 54.7636 88.2937 52.6715 89.0188 51.1385C87.0168 51.2467 84.8489 51.3549 82.9732 51.0519L82.966 51.0555ZM35.3156 51.1204C35.7413 52.5056 36.1886 53.9953 35.8495 55.5211C35.8495 54.8358 37.3392 54.136 36.1489 53.5372C36.6178 52.8519 36.2571 51.3874 37.1481 51.3224C36.4447 51.4667 35.9144 51.4667 35.3192 51.106L35.3156 51.1204ZM19.2458 51.3116C19.6715 61.0581 23.2678 69.5926 29.6091 76.8321C31.0159 75.3424 32.5886 73.6579 34.1181 72.4314C33.3534 71.9409 32.8628 71.0463 32.0981 70.4114C31.1386 70.2202 30.5001 69.304 30.2692 68.4996C30.3125 68.6079 30.161 68.6908 30.0781 68.7774C29.2051 69.203 28.9238 68.1173 28.3539 67.7782C27.82 67.5005 28.2456 66.2885 27.3078 66.7321C26.7739 65.8592 25.7747 65.9241 25.396 64.9033L25.0028 65.5274C24.3175 65.4841 23.8125 64.6544 23.4265 64.2288C22.0197 64.6544 22.5752 62.6958 21.7889 62.0573C21.4895 60.8236 21.8754 59.6946 22.5103 58.7387C22.9359 58.3564 23.7439 58.6521 23.8954 58.9299C24.6169 59.2076 24.1732 58.3527 24.5555 58.2085C25.5764 57.3355 26.0886 58.5475 26.6621 59.2076C25.8108 56.7548 25.277 53.8871 25.4068 51.2467C23.4229 51.4811 21.2153 51.4162 19.2386 51.29L19.2458 51.3116ZM27.3114 51.2467L27.5026 51.5244C27.6937 54.2659 28.4621 56.9532 28.6929 59.59C29.032 59.3555 28.8011 58.7387 29.2701 58.7387C29.4144 57.4401 29.6091 55.9504 30.4604 54.7997C31.6724 54.7564 31.7157 53.1188 33.0143 53.2234C33.3137 53.4579 33.7357 53.7572 33.8656 54.1396C33.2055 53.3749 33.1802 52.1557 33.4832 51.225C31.4355 51.498 29.361 51.5053 27.3114 51.2467ZM43.9547 53.6995L44.2938 54.2767C44.7627 56.1885 45.8918 57.79 46.8477 59.507L48.6512 57.6782C48.608 57.4437 48.7378 57.1876 48.5647 57.0181C48.2256 56.5492 48.4565 55.7195 47.9875 55.4418C47.8432 55.8674 48.3266 56.1019 48.0957 56.441C47.5186 56.2065 46.9054 55.9504 46.606 55.2506C46.7142 54.3777 46.0721 55.0161 45.6068 54.5905C45.5852 53.6526 44.3948 54.2659 43.9908 53.6959L43.9547 53.6995ZM50.3827 55.2759C50.2745 55.8097 49.8488 56.2354 49.5314 56.661C50.0652 56.4265 50.3827 55.6149 50.9742 55.6618L50.3827 55.2759ZM103.166 55.9973C99.5228 63.8248 102.167 74.2386 97.7372 81.709L98.4587 81.0958C107.058 76.3921 117.421 68.4708 115.719 56.9171C115.575 58.4934 115.059 59.8966 114.334 61.2385C110.972 66.4688 105.226 70.7505 102.43 76.2009C102.344 76.3921 102.091 76.5003 101.961 76.3091L102.538 75.5877C106.604 69.7333 102.964 62.5406 103.198 56.0081L103.166 55.9973ZM66.7086 56.6357C65.8573 57.8261 67.5166 57.7431 67.6248 58.7423C67.816 58.7423 68.0505 58.8289 68.1587 58.6557C68.0505 58.2301 68.0721 57.7828 67.6897 57.4654C67.0513 57.487 67.0513 56.6357 66.7158 56.6357H66.7086ZM13.0704 56.762C13.5393 59.2942 12.7313 61.509 12.349 63.8067C11.0504 68.2075 11.6889 73.3657 14.2607 76.9584C13.4095 76.5327 12.8756 75.5516 12.349 74.6606C9.17467 68.5718 1.17403 65.127 0.492281 57.8261C0.448996 60.4665 0.448995 63.2549 1.257 65.6356C3.47178 73.8094 12.4932 78.0225 18.5821 82.1563C14.2607 74.7075 16.5621 64.5534 13.0704 56.762ZM76.8807 57.1011C75.7733 56.2714 76.0078 57.8658 75.0519 57.7612C74.7128 57.6746 74.6263 57.2706 74.583 56.9099C74.4964 57.7828 73.8183 58.4429 73.3277 59.1247C71.5241 58.6341 72.0291 61.1086 70.2616 60.5675C70.4961 61.2529 71.2608 60.4593 71.6468 60.6757C71.9462 60.5315 71.8812 60.2068 72.0291 60.0156C72.2203 59.2942 73.0932 59.0165 73.8327 59.2942C74.2151 59.9074 74.3233 60.6794 74.3016 61.4008C73.876 61.7002 73.876 62.2088 73.9193 62.6994C73.3854 63.5723 73.6199 65.4408 72.0075 65.2532C70.3266 64.64 68.4941 64.1891 66.6437 64.1458V64.5282C67.8773 64.9971 69.2408 64.9971 70.24 65.9133C71.3041 65.8051 72.646 66.0576 73.4503 65.4444C73.5586 64.6797 73.876 64.0015 74.3666 63.4244C75.0519 63.511 74.9004 64.4236 75.2178 64.8672C77.2378 62.3134 79.0053 59.8641 79.6907 56.7151C78.6915 56.6718 77.9665 57.249 76.924 57.0975L76.8807 57.1011ZM52.2981 57.0145L48.6188 61.1447C50.7254 62.7426 53.1746 64.0196 55.898 64.4452C55.8547 63.7238 55.8547 63.0024 56.2371 62.4252C56.6194 62.1908 57.1966 62.5334 57.5356 62.1475C57.4924 61.8084 57.2579 61.8084 57.0667 61.4874C56.8322 60.9535 57.0667 60.4665 57.1533 60.1022C57.2976 59.8245 56.8539 59.2293 57.3445 59.0381C56.1541 59.6152 55.09 58.8036 54.0439 58.461C53.4668 58.0137 52.446 57.9091 52.2981 57.0181V57.0145ZM64.1547 61.1447C64.6237 60.5315 65.5976 60.6541 65.7924 59.9543C64.9411 59.81 63.9888 60.4232 64.1547 61.1447ZM66.3262 62.0609C65.9006 62.2954 65.5615 62.2954 65.3271 62.7823C64.8365 63.4424 64.2197 62.739 63.7507 62.5046C63.895 62.6957 64.2413 63.1647 63.8373 63.4208C63.3467 63.9546 62.8778 63.1863 62.3945 63.0384C62.1167 64.7194 61.5215 62.5695 60.5909 62.9519C60.2085 61.9924 59.5448 63.143 58.9532 63.0384C58.4843 63.4208 58.4627 64.5282 57.5681 64.4236C57.3769 64.9574 56.6519 64.7626 56.5689 65.145C56.9946 65.6356 57.5681 65.4228 58.0118 65.3362C58.7332 64.6761 59.6494 65.1017 60.5368 64.9971C60.4502 66.3822 62.0698 65.3362 62.5568 66.1875C63.1339 66.1442 63.1339 65.5742 63.3648 65.1414C64.5551 64.9502 65.7707 64.2252 66.4308 63.3126C66.6004 62.9879 66.8132 62.2485 66.3226 62.0573L66.3262 62.0609ZM46.7864 62.721C45.5744 64.2108 44.1062 65.6356 42.6562 66.8512H42.9339C46.2958 69.7657 50.5522 71.793 54.5345 72.4278C53.0916 72.2366 52.5145 70.8118 51.8544 69.7477C51.472 68.8748 52.8139 68.6836 52.5758 67.7638C53.0664 66.9558 53.8311 66.5085 54.7906 66.3786C54.3217 66.4652 53.8744 66.5229 53.4055 66.6564C50.9779 65.8484 48.5358 64.7807 46.7864 62.7174V62.721ZM99.4867 67.5726L96.2763 71.7857C91.955 77.7447 92.4456 85.8969 86.4433 90.983C89.5454 89.9838 92.9578 89.5581 96.1465 88.8764C103.382 87.0476 110.983 79.9162 112.025 72.5108C110.727 75.6129 108.003 77.8962 105.258 79.7034C100.511 81.9182 95.6992 84.4504 91.6808 87.9638H91.2119L91.4897 87.5814C98.4298 83.0004 96.5541 74.1268 99.4975 67.5762L99.4867 67.5726ZM74.969 68.0415V68.1281C72.0941 70.1481 76.3541 70.2347 76.4118 72.0022C75.9862 72.8535 74.4531 73.6831 75.4126 74.6823C75.712 75.0214 75.2683 75.2955 75.1349 75.5985L79.0739 72.2799C78.5833 72.619 77.9665 72.3881 77.6887 71.9409C77.7753 70.1373 75.6868 69.4303 74.9653 68.0451L74.969 68.0415ZM16.7569 68.2327L17.8643 71.0643C18.9284 77.4057 19.4406 84.4108 25.2084 88.4327L25.1219 88.5193C23.2461 87.7113 21.8213 86.1566 20.144 85.1141C14.7152 81.6008 7.22321 80.0641 4.16435 73.3007C5.01564 78.2425 8.37749 82.6793 12.4247 85.6877C17.2763 89.9657 24.0469 89.6267 29.9843 91.3509C27.8128 89.67 26.5791 87.7546 25.5836 85.3919C23.4337 79.368 21.5183 73.1276 16.7713 68.2363L16.7569 68.2327ZM43.1071 70.2094C43.1071 70.8695 43.98 70.8948 43.6409 71.6992C42.3424 72.5072 40.766 71.9336 39.5107 72.8895C38.3565 73.5028 37.4042 72.1681 36.7693 72.2294C42.346 77.0378 48.9001 80.2517 56.4355 80.616L56.9044 80.8938C56.605 79.065 56.7132 76.9151 56.8178 74.9997C51.6885 75.2991 47.0461 73.1709 43.1071 70.2094ZM80.6718 73.6146C79.8039 74.795 78.7118 75.7928 77.4579 76.5508C73.4792 77.9359 73.1293 82.3583 69.1975 83.83C67.6645 84.4432 66.7916 82.4449 65.41 82.1491C63.3467 82.4881 61.1969 83.0653 59.0903 82.7262V89.1541L59.3681 88.963C69.2444 88.5373 78.1396 84.6416 85.0798 78.1307C83.5035 76.641 81.8225 75.1079 80.6791 73.6218L80.6718 73.6146ZM35.5104 73.9969L31.254 78.3976C38.5116 84.9121 47.1976 88.4255 56.9657 89.0387L56.688 88.5698C56.7745 86.658 56.5437 84.6308 56.8791 82.7984L56.7926 82.9066C48.6621 82.6721 41.235 79.6493 35.5104 73.9897V73.9969ZM58.7945 75.3821L59.1769 76.0422L59.0903 80.8938C60.4971 80.3599 62.4522 80.4032 63.7507 80.1724C62.986 79.4076 61.839 79.487 61.536 78.3435C61.0021 77.5788 61.7704 76.7672 61.7271 76.1287C60.8109 75.6815 59.4582 76.2153 58.7945 75.3821ZM91.3021 79.9559C86.9014 82.8308 83.1067 87.7257 79.11 90.8495C76.8952 92.5304 74.2583 93.021 71.6612 93.7857C77.4074 94.2114 82.176 96.9131 88.1819 96.5271C94.6098 96.2494 100.504 92.5052 103.527 86.8023C99.1007 92.0795 91.9694 91.7801 85.4369 92.3789C83.2654 92.6567 81.1155 93.2951 78.9224 93.2951C79.0089 93.2086 79.0667 93.0607 79.2001 93.104C86.3315 92.5268 88.3514 84.7606 91.3093 79.9523L91.3021 79.9559ZM24.9199 80.4032C27.8561 83.8516 27.9859 88.4111 32.0728 91.2355C33.6491 92.6206 35.7521 92.8731 37.5016 93.5981C35.5429 93.7893 33.7574 92.9849 31.8023 92.8767C25.2265 92.0687 17.6911 92.92 12.8648 87.5562C15.0363 91.387 18.9104 94.7091 22.954 96.0041C30.5939 98.9187 37.534 94.619 44.8349 93.9841C36.387 93.6017 31.7879 84.3422 24.9343 80.4068L24.9199 80.4032ZM80.0226 98.3019C73.4936 95.3224 65.9114 91.9821 58.2498 94.8101C54.3974 93.5549 49.333 93.5549 45.4806 94.8101C38.7532 97.8762 29.5622 102.493 22.4526 97.364C23.7944 98.962 25.2409 99.7267 26.7739 100.856C31.3694 103.835 37.9921 103.536 42.7175 101.133C47.0461 99.3046 50.4007 93.8326 55.9557 95.5568C51.252 97.9195 46.9306 100.751 43.0349 104.816L45.3976 106.836C48.81 102.32 53.4992 98.5327 58.441 96.3179C63.2493 98.6626 67.6573 102.659 71.2969 106.681L73.6596 104.661C69.8288 100.957 65.3992 97.952 60.8037 95.5929C61.9941 95.2935 63.4441 95.3584 64.6561 95.4847C69.634 97.6562 73.4467 102.014 79.0847 102.677C85.0437 103.637 90.3642 101.234 94.0471 96.8698L91.2155 98.3596C87.897 99.8277 83.4061 99.4417 80.019 98.3379L80.0226 98.3019Z" fill="#008FD5"/>
</g>
<defs>
<clipPath id="clip0_447_1965">
<rect width="115.429" height="115.429" fill="white" transform="translate(0.475586 0.238098)"/>
</clipPath>
</defs>
</svg>
