<svg width="32" height="46" viewBox="0 0 32 46" fill="none" xmlns="http://www.w3.org/2000/svg">
<path d="M30.8298 22.5667C30.6783 22.6789 30.4217 22.895 30.1499 23.065C23.5314 27.123 16.9105 31.1777 10.2868 35.2159C9.9435 35.4251 9.55365 35.6426 9.19033 35.612C8.45886 35.5442 8.14445 34.4763 8.49949 33.3348C9.35231 30.5856 10.1979 27.8267 11.1029 25.1091C11.451 24.0613 11.5054 23.2444 10.986 22.2104C9.7305 19.7093 8.58921 17.0972 7.37706 14.5511C7.06608 13.9007 6.85333 13.1566 7.27323 12.6441C7.58429 12.269 8.18255 12.0609 8.5861 12.2037C15.7321 14.7377 22.8679 17.3356 30.0083 19.9266C31.1319 20.3346 31.5343 21.4629 30.8276 22.5701L30.8298 22.5667Z" fill="#EC7100"/>
</svg>
