<svg width="1122" height="162" viewBox="0 0 1122 162" fill="none" xmlns="http://www.w3.org/2000/svg">
<path d="M66.8188 162C54.6854 162 44.4188 160.4 36.0187 157.2C27.7521 153.867 21.0188 149.533 15.8188 144.2C10.7521 138.867 6.95208 133.067 4.41875 126.8C2.01875 120.4 0.61875 114.133 0.21875 108H31.4188C31.6854 112.8 33.1521 117.4 35.8187 121.8C38.4854 126.2 42.4854 129.8 47.8188 132.6C53.1521 135.4 59.8187 136.8 67.8188 136.8C76.4854 136.8 82.8854 135.067 87.0188 131.6C91.2854 128 93.4188 123.333 93.4188 117.6C93.4188 112.133 91.5521 107.667 87.8188 104.2C84.2188 100.733 79.4188 98 73.4188 96L50.8187 88.4C43.6188 86 36.6854 83.0667 30.0188 79.6C23.4854 76 18.0854 71.3333 13.8188 65.6C9.55208 59.7333 7.41875 52.2667 7.41875 43.2C7.41875 33.8667 9.75208 26 14.4188 19.6C19.2188 13.2 25.7521 8.33333 34.0188 4.99999C42.4188 1.66666 52.0187 -5.72205e-06 62.8187 -5.72205e-06C76.6854 -5.72205e-06 87.6188 2.33333 95.6188 7C103.619 11.6667 109.419 17.6 113.019 24.8C116.752 31.8667 119.019 39.2667 119.819 47H88.6188C88.3521 43.2667 87.2854 39.7333 85.4187 36.4C83.6854 32.9333 80.8854 30.1333 77.0187 28C73.1521 25.8667 67.9521 24.8 61.4188 24.8C54.0854 24.8 48.6188 26.3333 45.0188 29.4C41.5521 32.4667 39.8187 36.3333 39.8187 41C39.8187 46.0667 41.6188 50.1333 45.2188 53.2C48.9521 56.2667 53.8854 58.8667 60.0188 61L82.6188 68.6C89.9521 71 96.8854 74 103.419 77.6C109.952 81.2 115.285 86 119.419 92C123.685 97.8667 125.819 105.6 125.819 115.2C125.819 129.733 120.619 141.2 110.219 149.6C99.9521 157.867 85.4854 162 66.8188 162ZM149.341 159V2.99999H214.541C234.541 2.99999 249.141 7.26666 258.341 15.8C267.541 24.2 272.141 35.5333 272.141 49.8C272.141 64.0667 267.541 75.4667 258.341 84C249.274 92.5333 234.674 96.8 214.541 96.8H182.541V159H149.341ZM182.541 71.6H209.541C218.607 71.6 225.674 70.0667 230.741 67C235.941 63.8 238.541 58.1333 238.541 50C238.541 42 235.941 36.4 230.741 33.2C225.674 29.8667 218.607 28.2 209.541 28.2H182.541V71.6ZM293.247 159V2.99999H399.647V29.4H326.447V63.8H382.847V88.2H326.447V132.6H400.847V159H293.247ZM411.6 159V157.8L458.6 2.99999H511.2L558.4 157.8V159H524L486.2 29H481.4L443.2 159H411.6ZM450.6 120L457.6 94.8H510L517 120H450.6ZM575.2 159V2.99999H608V63H620L664.8 2.99999H702V4.19999L648 74.6L710.8 157.8V159H670.8L620 89.4H608V159H575.2ZM727.309 159V2.99999H833.709V29.4H760.509V63.8H816.909V88.2H760.509V132.6H834.909V159H727.309ZM859.262 159V2.99999H925.463C938.796 2.99999 949.596 4.93333 957.863 8.8C966.263 12.5333 972.396 17.7333 976.263 24.4C980.262 30.9333 982.262 38.5333 982.262 47.2C982.262 57.0667 979.662 65.6 974.463 72.8C969.262 80 961.596 85.1333 951.463 88.2L986.463 157.8V159H950.863L919.062 93H892.463V159H859.262ZM892.463 68.6H920.662C929.329 68.6 936.063 67.1333 940.863 64.2C945.796 61.2667 948.263 56 948.263 48.4C948.263 40.6667 945.796 35.4 940.863 32.6C935.929 29.6667 929.196 28.2 920.662 28.2H892.463V68.6ZM1062.68 162C1050.54 162 1040.28 160.4 1031.88 157.2C1023.61 153.867 1016.88 149.533 1011.68 144.2C1006.61 138.867 1002.81 133.067 1000.28 126.8C997.878 120.4 996.478 114.133 996.078 108H1027.28C1027.54 112.8 1029.01 117.4 1031.68 121.8C1034.34 126.2 1038.34 129.8 1043.68 132.6C1049.01 135.4 1055.68 136.8 1063.68 136.8C1072.34 136.8 1078.74 135.067 1082.88 131.6C1087.14 128 1089.28 123.333 1089.28 117.6C1089.28 112.133 1087.41 107.667 1083.68 104.2C1080.08 100.733 1075.28 98 1069.28 96L1046.68 88.4C1039.48 86 1032.54 83.0667 1025.88 79.6C1019.34 76 1013.94 71.3333 1009.68 65.6C1005.41 59.7333 1003.28 52.2667 1003.28 43.2C1003.28 33.8667 1005.61 26 1010.28 19.6C1015.08 13.2 1021.61 8.33333 1029.88 4.99999C1038.28 1.66666 1047.88 -5.72205e-06 1058.68 -5.72205e-06C1072.54 -5.72205e-06 1083.48 2.33333 1091.48 7C1099.48 11.6667 1105.28 17.6 1108.88 24.8C1112.61 31.8667 1114.88 39.2667 1115.68 47H1084.48C1084.21 43.2667 1083.14 39.7333 1081.28 36.4C1079.54 32.9333 1076.74 30.1333 1072.88 28C1069.01 25.8667 1063.81 24.8 1057.28 24.8C1049.94 24.8 1044.48 26.3333 1040.88 29.4C1037.41 32.4667 1035.68 36.3333 1035.68 41C1035.68 46.0667 1037.48 50.1333 1041.08 53.2C1044.81 56.2667 1049.74 58.8667 1055.88 61L1078.48 68.6C1085.81 71 1092.74 74 1099.28 77.6C1105.81 81.2 1111.14 86 1115.28 92C1119.54 97.8667 1121.68 105.6 1121.68 115.2C1121.68 129.733 1116.48 141.2 1106.08 149.6C1095.81 157.867 1081.34 162 1062.68 162Z" fill="black" fill-opacity="0.1"/>
</svg>
