<svg width="25" height="24" viewBox="0 0 25 24" fill="none" xmlns="http://www.w3.org/2000/svg">
<path d="M24.0979 11.7613C23.9527 11.8624 23.7076 12.059 23.4465 12.2098C17.0848 15.8046 10.7207 19.396 4.35341 22.9712C4.02341 23.1564 3.64812 23.3472 3.2923 23.2981C2.57574 23.1932 2.24064 22.1378 2.5578 21.0463C3.31943 18.4176 4.07372 15.7791 4.88723 13.1839C5.19999 12.1833 5.23185 11.3915 4.69732 10.3582C3.40523 7.85851 2.22182 5.25702 0.970881 2.71592C0.650016 2.06669 0.422702 1.33159 0.819653 0.855432C1.11384 0.507173 1.69303 0.336567 2.09109 0.496933C9.14019 3.34229 16.1811 6.24919 23.2262 9.14967C24.3348 9.60637 24.7575 10.7252 24.0958 11.7645L24.0979 11.7613Z" fill="#111F3C"/>
</svg>
